<svg width="50" height="51" viewBox="0 0 50 51" fill="none" xmlns="http://www.w3.org/2000/svg">
<g clip-path="url(#clip0_175_336)">
<path d="M25 50.8184C38.8071 50.8184 50 39.6255 50 25.8184C50 12.0112 38.8071 0.818359 25 0.818359C11.1929 0.818359 0 12.0112 0 25.8184C0 39.6255 11.1929 50.8184 25 50.8184Z" fill="#6DA544"/>
<path d="M24.9998 10.6006L45.652 25.818L24.9998 41.0353L4.34766 25.818L24.9998 10.6006Z" fill="#FFDA44"/>
<path d="M25.0003 34.5143C29.8027 34.5143 33.6959 30.6211 33.6959 25.8187C33.6959 21.0162 29.8027 17.123 25.0003 17.123C20.1978 17.123 16.3047 21.0162 16.3047 25.8187C16.3047 30.6211 20.1978 34.5143 25.0003 34.5143Z" fill="#F0F0F0"/>
<path d="M20.6517 25.2754C19.1396 25.2754 17.6803 25.5054 16.3066 25.9321C16.3675 30.6821 20.2351 34.5146 24.9995 34.5146C27.9456 34.5146 30.5476 33.048 32.1205 30.8067C29.4294 27.4379 25.2887 25.2754 20.6517 25.2754Z" fill="#0052B4"/>
<path d="M33.534 27.4847C33.6387 26.9452 33.6952 26.3887 33.6952 25.8187C33.6952 21.0161 29.8021 17.123 24.9996 17.123C21.4162 17.123 18.34 19.2911 17.0088 22.3866C18.1855 22.1428 19.4039 22.0144 20.6519 22.0144C25.7023 22.0143 30.2713 24.1137 33.534 27.4847Z" fill="#0052B4"/>
</g>
<defs>
<clipPath id="clip0_175_336">
<rect width="50" height="50" fill="white" transform="translate(0 0.818359)"/>
</clipPath>
</defs>
</svg>
