<svg width="50" height="51" viewBox="0 0 50 51" fill="none" xmlns="http://www.w3.org/2000/svg">
<g clip-path="url(#clip0_175_385)">
<path d="M1.55498 16.8507C0.550098 19.5591 0 22.4883 0 25.5463C0 28.6043 0.550098 31.5337 1.55498 34.2419L25 36.4158L48.445 34.2419C49.4499 31.5337 50 28.6043 50 25.5463C50 22.4883 49.4499 19.5591 48.445 16.8507L25 14.6768L1.55498 16.8507Z" fill="#F0F0F0"/>
<path d="M24.9996 0.545898C14.2506 0.545898 5.08691 7.33027 1.55469 16.8503H48.4448C44.9123 7.33027 35.7488 0.545898 24.9996 0.545898Z" fill="#D80027"/>
<path d="M24.9996 50.5456C35.7488 50.5456 44.9123 43.7612 48.4447 34.2412H1.55469C5.08691 43.7612 14.2506 50.5456 24.9996 50.5456Z" fill="#6DA544"/>
</g>
<defs>
<clipPath id="clip0_175_385">
<rect width="50" height="50" fill="white" transform="translate(0 0.545898)"/>
</clipPath>
</defs>
</svg>
